<svg xmlns="http://www.w3.org/2000/svg" width="185.6" height="24.3" viewBox="0 0 49.11 6.43"><text style="line-height:1.25;-inkscape-font-specification:'Product Sans'" x="56.66" y="19.16" font-weight="400" font-size="8.47" font-family="Product Sans" letter-spacing="0" word-spacing="0" fill="#343434" stroke-width=".26" transform="translate(-57.27 -12.88)"><tspan x="56.66" y="19.16" style="-inkscape-font-specification:'Product Sans Bold'" font-weight="700">BloomBus</tspan></text><path d="M40.72 0c-.62 0-1.11.54-1.11 1.11V5c0 .28.24.55.54.55h.43a1.14 1.14 0 0 0 2.23 0h3.1a1.14 1.14 0 0 0 2.22 0h.08c.43 0 .9-.27.9-.82V3.2a1.98 1.98 0 0 0-.11-.6l-.6-1.57C48.07.27 47.64 0 46.77 0zm.27.98h1.22c.25 0 .44.19.44.43v.82c0 .27-.2.46-.44.46h-1.25a.43.43 0 0 1-.4-.46V1.4c0-.27.19-.43.43-.43zm2.85 0h1.41c.25 0 .44.19.44.43v.82c0 .27-.2.46-.44.46h-1.4a.43.43 0 0 1-.44-.46V1.4c0-.27.19-.43.43-.43zm3.04 0h1.09a42.48 42.48 0 0 1 .67 1.7h-1.76a.43.43 0 0 1-.43-.45V1.4c0-.27.19-.43.43-.43zm-5.18 3.6c.4 0 .76.33.76.77l-.03.19a.76.76 0 0 1-1.5-.2c0-.43.36-.75.76-.75zm5.32 0c.4 0 .76.33.76.77l-.03.19a.76.76 0 0 1-1.5-.2c0-.43.36-.75.76-.75z" fill="#33a3f4"/></svg>