<svg xmlns="http://www.w3.org/2000/svg" viewBox="0 0 2.9401822 2.9401822"><path d="M.35002206 3.6e-7c-.19321198 0-.3500217.15680972-.3500217.3500217v2.24013888c0 .19321198.15680972.3500217.3500217.3500217h2.24013888c.19321198 0 .3500217-.15680972.3500217-.3500217V.35002206c0-.19321198-.15680972-.3500217-.3500217-.3500217zM1.4700915.56003508c.30451888 0 .52223238.04620286.6517404.0854053.05530343.01680104.10220634.0518032.13580843.09800607.03290203.04620287.05250325.10360642.05250325.16381016v.35282187h.07000434v.3500217h-.07000434v.80645c0 .05740356-.04550282.10360642-.10220634.10360642h-.06440399c-.05600347 0-.1015063-.04620286-.1015063-.10360642v-.03150196H.89815606v.03150196c0 .05740356-.04550283.10360642-.1015063.10360642h-.064404c-.0567035 0-.10220633-.04620286-.10220633-.10360642v-.80645H.56003508v-.3500217h.07000434V.90725661c0-.12040747.07770482-.22821415.18831167-.26181624.12950803-.03920243.34722153-.08540529.65174041-.08540529zM.7700481.98006112v.63003906h.63003906V.98006112zm.77004774 0v.63003906h.63003906V.98006112zm-.59503689.91005642a.10500651.10500651 0 0 0-.10500651.10500651.10500651.10500651 0 0 0 .10500651.10500651.10500651.10500651 0 0 0 .10500651-.10500651.10500651.10500651 0 0 0-.10500651-.10500651zm1.0500651 0a.10500651.10500651 0 0 0-.10500651.10500651.10500651.10500651 0 0 0 .10500651.10500651.10500651.10500651 0 0 0 .10500651-.10500651.10500651.10500651 0 0 0-.10500651-.10500651z" fill="#33A3F4"/></svg>