<svg xmlns="http://www.w3.org/2000/svg" viewBox="0 0 2.9401822 2.9401822"><path fill="#949494" d="M.35001906-.00000264c-.19251193 0-.3500217.15750977-.3500217.3500217v2.24013888c0 .19251194.15750977.3500217.3500217.3500217h2.24013888c.19251194 0 .3500217-.15750976.3500217-.3500217V.35001906c0-.19251193-.15750976-.3500217-.3500217-.3500217zm0 .14000868h2.24013888c.11676724 0 .21001302.09324578.21001302.21001302v2.24013888c0 .11676724-.09324578.21001302-.21001302.21001302H.35001906c-.11676724 0-.21001302-.09324578-.21001302-.21001302V.35001906c0-.11676724.09324578-.21001302.21001302-.21001302zm1.12006944.3500217c-.3290204 0-.56493502.04739294-.70774388.08848549H.76213461C.64242719.61295536.56003208.72314219.56003208.8475399v.41253558H.49002774v.3500217h.07000434v.80504991c0 .05719355.04781296.10500651.10500651.10500651h.07000434c.05719355 0 .10500651-.04781296.10500651-.10500651v-.03500217h1.26007812v.03500217c0 .05719355.04781296.10500651.10500651.10500651h.07000434c.05719355 0 .10500651-.04781296.10500651-.10500651v-.80504991h.07000434v-.3500217h-.07000434V.8475399c0-.1243277-.0823951-.23451453-.20210253-.26902667h-.00014C2.03523353.53742068 1.79910888.49002774 1.4700885.49002774zm0 .14000868c.31550956 0 .53833337.04536281.66924149.08302515.05775358.01666103.09695601.06734417.1001062.12698787H.7007408C.703891.78040574.74309343.7297226.80084701.71306157c.13090812-.03766234.35366193-.08302515.66924149-.08302515zm-.77004774.3500217h.7000434v.63003906h-.7000434zm.84005208 0h.7000434v.63003906h-.7000434zm-.84005208.77004774h1.54009548v.49003038H.70004076zm.24501519.14000868a.10500651.10500651 0 0 0-.10500651.10500651.10500651.10500651 0 0 0 .10500651.10500651.10500651.10500651 0 0 0 .10500651-.10500651.10500651.10500651 0 0 0-.10500651-.10500651zm1.0500651 0a.10500651.10500651 0 0 0-.10500651.10500651.10500651.10500651 0 0 0 .10500651.10500651.10500651.10500651 0 0 0 .10500651-.10500651.10500651.10500651 0 0 0-.10500651-.10500651z" style="line-height:normal;text-indent:0;text-align:start;text-decoration-line:none;text-decoration-style:solid;text-decoration-color:#000;text-transform:none;isolation:auto;mix-blend-mode:normal"/></svg>