<svg xmlns="http://www.w3.org/2000/svg" viewBox="0 0 3.22 3.22"><path fill="#949494" overflow="visible" font-weight="400" d="M1.61 0a1.61 1.61 0 1 0 0 3.22 1.61 1.61 0 0 0 0-3.22zm0 .14a1.47 1.47 0 1 1 0 2.94 1.47 1.47 0 0 1 0-2.94zm0 .49a.21.21 0 0 0-.21.21.21.21 0 0 0 .21.21.21.21 0 0 0 .21-.21.21.21 0 0 0-.21-.21zm-.28.7v.14h.14v.91h-.14v.14h.56v-.14h-.14V1.33z" style="line-height:normal;text-indent:0;text-align:start;text-decoration-line:none;text-decoration-style:solid;text-decoration-color:#000;text-transform:none;isolation:auto;mix-blend-mode:normal" font-family="sans-serif" white-space="normal"/></svg>