<?xml version="1.0" encoding="UTF-8" standalone="no"?><!DOCTYPE svg PUBLIC "-//W3C//DTD SVG 1.1//EN" "http://www.w3.org/Graphics/SVG/1.1/DTD/svg11.dtd"><svg width="100%" height="100%" viewBox="0 0 68 71" version="1.1" xmlns="http://www.w3.org/2000/svg" xmlns:xlink="http://www.w3.org/1999/xlink" xml:space="preserve" xmlns:serif="http://www.serif.com/" style="fill-rule:evenodd;clip-rule:evenodd;stroke-linecap:round;stroke-linejoin:round;stroke-miterlimit:1.5;"><g><path d="M21.018,57.269c0,-3.105 -2.521,-5.626 -5.626,-5.626c-3.105,0 -5.626,2.521 -5.626,5.626l0,5.762c0,3.105 2.521,5.626 5.626,5.626c3.105,0 5.626,-2.521 5.626,-5.626l0,-5.762Z" style="fill:#fff;stroke:#33a3f4;stroke-width:4px;"/><path d="M57.509,57.269c0,-3.105 -2.521,-5.626 -5.626,-5.626c-3.106,0 -5.626,2.521 -5.626,5.626l0,5.762c0,3.105 2.52,5.626 5.626,5.626c3.105,0 5.626,-2.521 5.626,-5.626l0,-5.762Z" style="fill:#fff;stroke:#33a3f4;stroke-width:4px;"/><path d="M62.407,11.935c0,-3.023 -2.454,-5.478 -5.478,-5.478l-46.636,0c-3.024,0 -5.478,2.455 -5.478,5.478l0,43.825c0,3.024 2.454,5.478 5.478,5.478l46.636,0c3.024,0 5.478,-2.454 5.478,-5.478l0,-43.825Z" style="fill:#33a3f4;"/><ellipse cx="33.687" cy="11.965" rx="26.224" ry="9.465" style="fill:#fff;stroke:#33a3f4;stroke-width:5px;"/><path d="M67.386,20.03c0,-2.865 -2.326,-5.191 -5.192,-5.191l-57.002,0c-2.866,0 -5.192,2.326 -5.192,5.191l0,10.383c0,2.866 2.326,5.192 5.192,5.192l57.002,0c2.866,0 5.192,-2.326 5.192,-5.192l0,-10.383Z" style="fill:#33a3f4;"/><path d="M62.407,22.875c0,-1.437 -1.166,-2.604 -2.604,-2.604l-52.384,0c-1.437,0 -2.604,1.167 -2.604,2.604l0,5.209c0,1.437 1.167,2.604 2.604,2.604l52.384,0c1.438,0 2.604,-1.167 2.604,-2.604l0,-5.209Z" style="fill:#fff;"/><path d="M57.509,12.544c0,-1.275 -1.036,-2.311 -2.312,-2.311l-43.119,0c-1.276,0 -2.312,1.036 -2.312,2.311l0,41.61c0,1.275 1.036,2.311 2.312,2.311l43.119,0c1.276,0 2.312,-1.036 2.312,-2.311l0,-41.61Z" style="fill:#fff;"/><path d="M50.438,21.219c0,-3.521 -2.859,-6.38 -6.381,-6.38l-20.311,0c-3.521,0 -6.38,2.859 -6.38,6.38l0,6.574c0,3.522 2.859,6.381 6.38,6.381l20.311,0c3.522,0 6.381,-2.859 6.381,-6.381l0,-6.574Z" style="fill:none;stroke:#33a3f4;stroke-width:4px;"/><circle cx="19.9" cy="46.212" r="3.043" style="fill:#ffd800;"/><circle cx="46.814" cy="46.212" r="3.043" style="fill:#ffd800;"/></g></svg>