<svg xmlns="http://www.w3.org/2000/svg" viewBox="0 0 3.5 2.387"><path fill="#949494" d="M.411 0A.424.424 0 0 0 0 .413V1.84c0 .107.09.197.197.197h.16a.42.42 0 0 0 .826 0h1.134a.42.42 0 0 0 .827 0h.028c.065 0 .14-.017.208-.064a.287.287 0 0 0 .12-.238v-.551a.708.708 0 0 0-.04-.22V.964s-.118-.33-.224-.585a.583.583 0 0 0-.228-.297.697.697 0 0 0-.37-.081zm.002.14h2.225a.56.56 0 0 1 .296.061.342.342 0 0 1 .094.086h-.346a.233.233 0 0 0-.232.232v.306c0 .127.105.232.232.232h.659c.01.043.02.088.02.127v.55c0 .068-.024.1-.06.126a.244.244 0 0 1-.129.037h-.028a.42.42 0 0 0-.827 0H1.183a.42.42 0 0 0-.826 0h-.16A.055.055 0 0 1 .14 1.84V.414C.14.272.262.147.413.14zm.099.147A.233.233 0 0 0 .28.519v.306c0 .127.105.232.232.232h.446A.233.233 0 0 0 1.19.825V.518A.233.233 0 0 0 .958.287zm1.05 0a.233.233 0 0 0-.232.232v.306c0 .127.105.232.232.232h.516A.233.233 0 0 0 2.31.825V.518a.233.233 0 0 0-.232-.231zm-1.05.14h.446c.056 0 .092.036.092.092v.306c0 .055-.036.092-.092.092H.512C.457.917.42.88.42.825V.518C.42.463.457.427.512.427zm1.05 0h.516c.056 0 .092.036.092.092v.306c0 .055-.036.092-.092.092h-.516C1.507.917 1.47.88 1.47.825V.518c0-.055.037-.091.092-.091zm1.12 0h.422l.002.004v.002c.08.19.151.382.189.484h-.613C2.627.917 2.59.88 2.59.825V.518c0-.055.037-.091.092-.091zM.77 1.687a.278.278 0 0 1 .278.295.28.28 0 1 1-.558-.024.28.28 0 0 1 .28-.271zm1.96 0a.279.279 0 0 1 .28.288.28.28 0 0 1-.28.272.28.28 0 0 1-.28-.29.28.28 0 0 1 .28-.27z"/></svg>