<?xml version="1.0" encoding="UTF-8" standalone="no"?><!DOCTYPE svg PUBLIC "-//W3C//DTD SVG 1.1//EN" "http://www.w3.org/Graphics/SVG/1.1/DTD/svg11.dtd"><svg width="100%" height="100%" viewBox="0 0 93 93" version="1.1" xmlns="http://www.w3.org/2000/svg" xmlns:xlink="http://www.w3.org/1999/xlink" xml:space="preserve" xmlns:serif="http://www.serif.com/" style="fill-rule:evenodd;clip-rule:evenodd;stroke-linecap:round;stroke-linejoin:round;stroke-miterlimit:1.5;"><g><ellipse cx="46.08" cy="83.538" rx="32.32" ry="8.622" style="fill:url(#_Radial1);"/><circle cx="46.047" cy="80.255" r="5.339" style="fill:#33a3f4;"/><rect x="40.641" y="24.378" width="10.746" height="55.877" style="fill:#33a3f4;"/><circle cx="46.047" cy="32.388" r="27.565" style="fill:#33a3f4;"/><circle cx="46.013" cy="32.388" r="21.894" style="fill:#fff;"/></g><clipPath id="_clip2"><rect id="shuttle-front" x="31.456" y="17.118" width="29.248" height="30.538"/></clipPath><g clip-path="url(#_clip2)"><g><path d="M40.496,41.751c0,-1.336 -1.084,-2.42 -2.42,-2.42c-1.335,0 -2.419,1.084 -2.419,2.42l0,2.478c0,1.336 1.084,2.42 2.419,2.42c1.336,0 2.42,-1.084 2.42,-2.42l0,-2.478Z" style="fill:#fff;stroke:#33a3f4;stroke-width:1.72px;"/><path d="M56.192,41.751c0,-1.336 -1.085,-2.42 -2.42,-2.42c-1.336,0 -2.42,1.084 -2.42,2.42l0,2.478c0,1.336 1.084,2.42 2.42,2.42c1.335,0 2.42,-1.084 2.42,-2.42l0,-2.478Z" style="fill:#fff;stroke:#33a3f4;stroke-width:1.72px;"/><path d="M58.298,22.252c0,-1.3 -1.055,-2.356 -2.356,-2.356l-20.059,0c-1.3,0 -2.356,1.056 -2.356,2.356l0,18.85c0,1.301 1.056,2.356 2.356,2.356l20.059,0c1.301,0 2.356,-1.055 2.356,-2.356l0,-18.85Z" style="fill:#33a3f4;"/><ellipse cx="45.945" cy="22.265" rx="11.279" ry="4.071" style="fill:#fff;stroke:#33a3f4;stroke-width:2.15px;"/><path d="M60.44,25.734c0,-1.233 -1.001,-2.233 -2.233,-2.233l-24.518,0c-1.233,0 -2.233,1 -2.233,2.233l0,4.466c0,1.232 1,2.233 2.233,2.233l24.518,0c1.232,0 2.233,-1.001 2.233,-2.233l0,-4.466Z" style="fill:#33a3f4;"/><path d="M58.298,26.957c0,-0.618 -0.501,-1.12 -1.12,-1.12l-22.531,0c-0.618,0 -1.12,0.502 -1.12,1.12l0,2.241c0,0.618 0.502,1.12 1.12,1.12l22.531,0c0.619,0 1.12,-0.502 1.12,-1.12l0,-2.241Z" style="fill:#fff;"/><path d="M56.192,22.514c0,-0.549 -0.446,-0.994 -0.995,-0.994l-18.546,0c-0.549,0 -0.994,0.445 -0.994,0.994l0,17.897c0,0.549 0.445,0.994 0.994,0.994l18.546,0c0.549,0 0.995,-0.445 0.995,-0.994l0,-17.897Z" style="fill:#fff;"/><path d="M53.15,26.245c0,-1.514 -1.229,-2.744 -2.744,-2.744l-8.736,0c-1.515,0 -2.745,1.23 -2.745,2.744l0,2.828c0,1.515 1.23,2.744 2.745,2.744l8.736,0c1.515,0 2.744,-1.229 2.744,-2.744l0,-2.828Z" style="fill:none;stroke:#33a3f4;stroke-width:1.72px;"/><circle cx="40.015" cy="36.995" r="1.309" style="fill:#ffd800;"/><circle cx="51.592" cy="36.995" r="1.309" style="fill:#ffd800;"/></g></g><defs><radialGradient id="_Radial1" cx="0" cy="0" r="1" gradientUnits="userSpaceOnUse" gradientTransform="matrix(-31.9792,3.91632e-15,-1.12339e-15,-9.17314,45.7907,83.7584)"><stop offset="0" style="stop-color:#d4ddef;stop-opacity:1"/><stop offset="0.61" style="stop-color:#d4ddef;stop-opacity:0.831373"/><stop offset="0.82" style="stop-color:#d4ddef;stop-opacity:0.427451"/><stop offset="1" style="stop-color:#d4ddef;stop-opacity:0"/></radialGradient></defs></svg>