<svg xmlns="http://www.w3.org/2000/svg" fill-rule="evenodd" stroke-linejoin="round" stroke-miterlimit="2" clip-rule="evenodd" viewBox="0 0 42 42">
  <path fill="#00c1ff" d="M42.04 14.05a.77.77 0 0 0-.77-.77H3.28a3.24 3.24 0 0 0-3.24 3.24v8.95a3.24 3.24 0 0 0 3.24 3.25h38c.42 0 .76-.35.76-.78V14.05z"/>
  <path fill="#004465" d="M40.06 15.97c0-.31-.25-.56-.56-.56H4.69c-1.23 0-2.24 1-2.24 2.24v6.7c0 1.24 1 2.24 2.24 2.24h34.8c.32 0 .57-.25.57-.56V15.97z"/>
  <path fill="#00c1ff" d="M7.1 13.67h.07l.06.02.07.02.06.02.06.03.06.03.05.04.06.04.04.05.05.05.04.05.04.05.03.06.03.06.02.07.02.06.01.07.01.06V27.82l-.02.06-.02.07-.02.06-.03.06-.03.06-.04.06-.04.05-.04.05-.05.04-.06.04-.05.04-.06.03-.06.03-.06.02-.07.02-.06.02H6.9l-.07-.02-.06-.02-.06-.02-.06-.03-.06-.03-.06-.04-.05-.04-.05-.04-.04-.05-.04-.05-.04-.06-.03-.06-.03-.06-.02-.06-.02-.07-.02-.06V14.39l.02-.07.02-.06.02-.07.03-.06.03-.06.04-.05.04-.05.04-.05.05-.05.05-.04.06-.04.06-.03.06-.03.06-.02.07-.02.06-.01h.07l.06-.01h.07z"/>
  <path fill="#004464" d="M31.52 12.52h3.09v.82h-3.09zM31.47 28.72h3.09v.82h-3.09zM3.99 12.46h3.09v.82H3.99zM3.93 28.72h3.09v.82H3.93zM36.34 12.46h3.09v.82h-3.09zM36.34 28.72h3.09v.82h-3.09z"/>
</svg>
