<?xml version="1.0" encoding="UTF-8" standalone="no"?><!DOCTYPE svg PUBLIC "-//W3C//DTD SVG 1.1//EN" "http://www.w3.org/Graphics/SVG/1.1/DTD/svg11.dtd"><svg width="100%" height="100%" viewBox="0 0 32 32" version="1.1" xmlns="http://www.w3.org/2000/svg" xmlns:xlink="http://www.w3.org/1999/xlink" xml:space="preserve" xmlns:serif="http://www.serif.com/" style="fill-rule:evenodd;clip-rule:evenodd;stroke-linecap:round;stroke-linejoin:round;stroke-miterlimit:1.5;"><clipPath id="_clip1"><rect id="shuttle-front" x="-0.029" y="0.675" width="31.5" height="30.121"/></clipPath><g clip-path="url(#_clip1)"><g><path d="M9.707,24.971c0,-1.317 -1.168,-2.387 -2.606,-2.387c-1.439,0 -2.606,1.07 -2.606,2.387l0,2.444c0,1.318 1.167,2.387 2.606,2.387c1.438,0 2.606,-1.069 2.606,-2.387l0,-2.444Z" style="fill:#fff;stroke:#33a3f4;stroke-width:1.78px;"/><path d="M26.611,24.971c0,-1.317 -1.168,-2.387 -2.606,-2.387c-1.439,0 -2.606,1.07 -2.606,2.387l0,2.444c0,1.318 1.167,2.387 2.606,2.387c1.438,0 2.606,-1.069 2.606,-2.387l0,-2.444Z" style="fill:#fff;stroke:#33a3f4;stroke-width:1.78px;"/><path d="M28.88,5.738c0,-1.282 -1.137,-2.324 -2.538,-2.324l-21.603,0c-1.401,0 -2.538,1.042 -2.538,2.324l0,18.593c0,1.283 1.137,2.324 2.538,2.324l21.603,0c1.401,0 2.538,-1.041 2.538,-2.324l0,-18.593Z" style="fill:#33a3f4;"/><ellipse cx="15.576" cy="5.751" rx="12.148" ry="4.015" style="fill:#fff;stroke:#33a3f4;stroke-width:2.22px;"/><path d="M31.186,9.173c0,-1.216 -1.077,-2.203 -2.405,-2.203l-26.405,0c-1.328,0 -2.405,0.987 -2.405,2.203l0,4.405c0,1.215 1.077,2.202 2.405,2.202l26.405,0c1.328,0 2.405,-0.987 2.405,-2.202l0,-4.405Z" style="fill:#33a3f4;"/><path d="M28.88,10.38c0,-0.61 -0.54,-1.105 -1.206,-1.105l-24.267,0c-0.665,0 -1.206,0.495 -1.206,1.105l0,2.209c0,0.61 0.541,1.105 1.206,1.105l24.267,0c0.666,0 1.206,-0.495 1.206,-1.105l0,-2.209Z" style="fill:#fff;"/><path d="M26.611,5.997c0,-0.541 -0.48,-0.981 -1.071,-0.981l-19.974,0c-0.591,0 -1.071,0.44 -1.071,0.981l0,17.652c0,0.541 0.48,0.981 1.071,0.981l19.974,0c0.591,0 1.071,-0.44 1.071,-0.981l0,-17.652Z" style="fill:#fff;"/><path d="M23.335,9.677c0,-1.494 -1.324,-2.707 -2.956,-2.707l-9.408,0c-1.631,0 -2.956,1.213 -2.956,2.707l0,2.789c0,1.494 1.325,2.707 2.956,2.707l9.408,0c1.632,0 2.956,-1.213 2.956,-2.707l0,-2.789Z" style="fill:none;stroke:#33a3f4;stroke-width:1.78px;"/><ellipse cx="9.189" cy="20.28" rx="1.41" ry="1.291" style="fill:#ffd800;"/><ellipse cx="21.657" cy="20.28" rx="1.41" ry="1.291" style="fill:#ffd800;"/></g></g></svg>