<svg xmlns="http://www.w3.org/2000/svg" xmlns:xlink="http://www.w3.org/1999/xlink" width="90" height="60"><defs><symbol id="icon-bus-stop-2" viewBox="0 0 50 50"><path style="line-height:normal;text-indent:0;text-align:start;text-decoration-line:none;text-decoration-style:solid;text-decoration-color:#000;text-transform:none;block-progression:tb;isolation:auto;mix-blend-mode:normal" d="M9 4C6.25 4 4 6.25 4 9v32c0 2.75 2.25 5 5 5h32c2.75 0 5-2.25 5-5V9c0-2.75-2.25-5-5-5H9zm0 2h32c1.668 0 3 1.332 3 3v32c0 1.668-1.332 3-3 3H9c-1.668 0-3-1.332-3-3V9c0-1.668 1.332-3 3-3zm16 5c-4.7 0-8.07.677-10.11 1.264h-.003C13.177 12.756 12 14.33 12 16.107V22h-1v5h1v11.5c0 .817.683 1.5 1.5 1.5h1c.817 0 1.5-.683 1.5-1.5V38h18v.5c0 .817.683 1.5 1.5 1.5h1c.817 0 1.5-.683 1.5-1.5V27h1v-5h-1v-5.893c0-1.776-1.177-3.35-2.887-3.843h-.002C33.073 11.677 29.7 11 25 11zm0 2c4.507 0 7.69.648 9.56 1.186.825.238 1.385.962 1.43 1.814H14.01c.045-.852.605-1.576 1.43-1.814C17.31 13.648 20.492 13 25 13zm-11 5h10v9H14v-9zm12 0h10v9H26v-9zM14 29h22v7H14v-7zm3.5 2a1.5 1.5 0 0 0-1.5 1.5 1.5 1.5 0 0 0 1.5 1.5 1.5 1.5 0 0 0 1.5-1.5 1.5 1.5 0 0 0-1.5-1.5zm15 0a1.5 1.5 0 0 0-1.5 1.5 1.5 1.5 0 0 0 1.5 1.5 1.5 1.5 0 0 0 1.5-1.5 1.5 1.5 0 0 0-1.5-1.5z"/></symbol><symbol id="icon-bus-stop" viewBox="0 0 50 50"><path d="M9 4C6.24 4 4 6.24 4 9v32c0 2.76 2.24 5 5 5h32c2.76 0 5-2.24 5-5V9c0-2.76-2.24-5-5-5H9zm16 8c4.35 0 7.46.66 9.31 1.22.79.24 1.46.74 1.94 1.4.47.66.75 1.48.75 2.34V22h1v5h-1v11.52c0 .82-.65 1.48-1.46 1.48h-.92c-.8 0-1.45-.66-1.45-1.48v-.45H16.83v.45c0 .82-.65 1.48-1.45 1.48h-.92c-.81 0-1.46-.66-1.46-1.48V27h-1v-5h1v-5.04c0-1.72 1.11-3.26 2.69-3.74C17.54 12.66 20.65 12 25 12zm-10 6v9h9v-9h-9zm11 0v9h9v-9h-9zm-8.5 13a1.5 1.5 0 0 0-1.5 1.5 1.5 1.5 0 0 0 1.5 1.5 1.5 1.5 0 0 0 1.5-1.5 1.5 1.5 0 0 0-1.5-1.5zm15 0a1.5 1.5 0 0 0-1.5 1.5 1.5 1.5 0 0 0 1.5 1.5 1.5 1.5 0 0 0 1.5-1.5 1.5 1.5 0 0 0-1.5-1.5z"/></symbol><symbol id="icon-info-2" viewBox="0 0 50 50"><path d="M25 2C12.297 2 2 12.297 2 25s10.297 23 23 23 23-10.297 23-23S37.703 2 25 2zm0 9c1.657 0 3 1.343 3 3s-1.343 3-3 3-3-1.343-3-3 1.343-3 3-3zm4 27h-8v-2h2V23h-2v-2h6v15h2v2z"/></symbol><symbol id="icon-info" viewBox="0 0 50 50"><path style="line-height:normal;text-indent:0;text-align:start;text-decoration-line:none;text-decoration-style:solid;text-decoration-color:#000;text-transform:none;block-progression:tb;isolation:auto;mix-blend-mode:normal" d="M25 2C12.31 2 2 12.31 2 25s10.31 23 23 23 23-10.31 23-23S37.69 2 25 2zm0 2c11.61 0 21 9.39 21 21s-9.39 21-21 21S4 36.61 4 25 13.39 4 25 4zm0 7a3 3 0 0 0-3 3 3 3 0 0 0 3 3 3 3 0 0 0 3-3 3 3 0 0 0-3-3zm-4 10v2h2v13h-2v2h8v-2h-2V21h-6z" font-weight="400" font-family="sans-serif" white-space="normal" overflow="visible"/></symbol><symbol id="icon-shuttle-2" viewBox="0 0 50 50"><path d="M5.875 15.906C2.652 16.026 0 18.648 0 21.812v20.375C0 43.724 1.277 45 2.813 45h2.28c.477 2.836 2.942 5 5.907 5s5.43-2.164 5.906-5h16.188c.476 2.836 2.94 5 5.906 5 2.965 0 5.43-2.164 5.906-5h.407c.93 0 2.007-.238 2.968-.906.962-.668 1.72-1.864 1.72-3.407v-7.874c0-1.047-.234-2.14-.563-3.126v-.03s-1.703-4.708-3.218-8.345c-.798-1.968-1.814-3.375-3.25-4.25-1.44-.875-3.193-1.156-5.282-1.156zm.03 2h31.782c1.91 0 3.23.274 4.22.875.495.302.937.693 1.343 1.22h-4.938C36.5 20 35 21.5 35 23.313v4.375C35 29.5 36.5 31 38.313 31h9.406c.155.625.28 1.266.28 1.813v7.874c0 .958-.328 1.422-.844 1.782-.515.358-1.273.53-1.843.53h-.407c-.476-2.836-2.94-5-5.906-5-2.965 0-5.43 2.164-5.906 5H16.906c-.476-2.836-2.94-5-5.906-5-2.965 0-5.43 2.164-5.906 5H2.812C2.349 43 2 42.652 2 42.187V21.814c0-2.028 1.742-3.81 3.906-3.907zM7.313 20C5.5 20 4 21.5 4 23.313v4.375C4 29.5 5.5 31 7.313 31h6.375C15.5 31 17 29.5 17 27.687v-4.375C17 21.5 15.5 20 13.687 20zm15 0C20.5 20 19 21.5 19 23.313v4.375C19 29.5 20.5 31 22.313 31h7.375C31.5 31 33 29.5 33 27.687v-4.375C33 21.5 31.5 20 29.687 20zm-15 2h6.375c.79 0 1.313.523 1.313 1.313v4.375c0 .79-.523 1.312-1.313 1.312H7.314C6.522 29 6 28.477 6 27.687v-4.375C6 22.523 6.523 22 7.313 22zm15 0h7.375c.79 0 1.313.523 1.313 1.313v4.375c0 .79-.523 1.312-1.313 1.312h-7.375c-.79 0-1.312-.523-1.312-1.313v-4.375c0-.79.523-1.312 1.313-1.312zm16 0h6.032c.008.023.023.04.03.063v.03c1.13 2.712 2.153 5.462 2.688 6.907h-8.75c-.79 0-1.312-.523-1.312-1.313v-4.375c0-.79.523-1.312 1.313-1.312zM11 40c2.176 0 3.902 1.715 3.97 3.875-.02.113-.02.23 0 .344C14.854 46.335 13.144 48 11 48c-2.188 0-3.95-1.73-4-3.906.008-.074.008-.145 0-.22C7.066 41.715 8.82 40 11 40zm28 0c2.223 0 4 1.777 4 4-.004.043-.004.082 0 .125-.066 2.16-1.82 3.875-4 3.875-2.188 0-3.95-1.73-4-3.906.008-.074.008-.145 0-.22.066-2.16 1.82-3.874 4-3.874z"/></symbol><symbol id="icon-shuttle" viewBox="0 0 50 50"><path d="M5.875 15.906C2.64 16.026 0 18.68 0 21.812v20.375C0 43.73 1.27 45 2.813 45h2.28c.48 2.832 2.938 5 5.907 5 2.97 0 5.426-2.168 5.906-5h16.188c.48 2.832 2.937 5 5.906 5 2.97 0 5.43-2.168 5.906-5h.407C47.578 45 50 43.64 50 40.687v-7.874c0-.942-.2-2.063-.563-3.157-.02-.047-1.73-4.773-3.218-8.343-1.603-3.954-3.92-5.407-8.532-5.407zM7.313 21h6.375c1.3 0 2.312 1.012 2.312 2.313v4.375c0 1.3-1.012 2.312-2.313 2.312H7.314C6.013 30 5 28.988 5 27.687v-4.375C5 22.012 6.012 21 7.313 21zm15 0h7.375c1.3 0 2.312 1.012 2.312 2.313v4.375c0 1.3-1.012 2.312-2.313 2.312h-7.375C21.012 30 20 28.988 20 27.687v-4.375c0-1.3 1.012-2.312 2.313-2.312zm16 0h5.562c.176.328.34.7.5 1.094 1.254 3.004 2.66 6.812 3.063 7.906h-9.126C37.013 30 36 28.988 36 27.687v-4.375c0-1.3 1.012-2.312 2.313-2.312zM11 40c2.207 0 4 1.793 4 4 0 .348-.074.68-.156 1-.446 1.723-1.985 3-3.844 3-1.86 0-3.398-1.277-3.844-3-.082-.32-.156-.652-.156-1 0-2.207 1.793-4 4-4zm28 0c2.207 0 4 1.793 4 4 0 .348-.074.68-.156 1-.446 1.723-1.985 3-3.844 3-1.86 0-3.398-1.277-3.844-3-.082-.32-.156-.652-.156-1 0-2.207 1.793-4 4-4z"/></symbol></defs><g><use xlink:href="#icon-bus-stop-2" width="24" height="24" x="3" y="3"/><use xlink:href="#icon-bus-stop" width="24" height="24" x="33" y="3"/><use xlink:href="#icon-info-2" width="24" height="24" x="63" y="3"/><use xlink:href="#icon-info" width="24" height="24" x="3" y="33"/><use xlink:href="#icon-shuttle-2" width="24" height="24" x="33" y="33"/><use xlink:href="#icon-shuttle" width="24" height="24" x="63" y="33"/></g></svg>